<?xml version="1.0" encoding="utf-8"?>
<!-- Generator: Adobe Illustrator 21.0.0, SVG Export Plug-In . SVG Version: 6.00 Build 0)  -->
<svg version="1.1" id="图层_1" xmlns="http://www.w3.org/2000/svg" xmlns:xlink="http://www.w3.org/1999/xlink" x="0px" y="0px"
	 viewBox="0 0 488 93.1" style="enable-background:new 0 0 488 93.1;" xml:space="preserve">
<style type="text/css">
	.st0{fill:#FF3034;}
	.st1{fill:#FFFEFE;}
	.st2{fill:#FFFFFF;}
</style>
<g id="图层_1_1_">
	<g id="XMLID_17_">
		<rect id="XMLID_62_" class="st0" width="93.1" height="93.1"/>
		<path id="XMLID_61_" class="st1" d="M34.1,65.2c0,2.9-2.4,5.3-5.3,5.3c-2.9,0-5.3-2.4-5.3-5.3s2.4-5.3,5.3-5.3
			C31.7,60,34.1,62.3,34.1,65.2"/>
		<path id="XMLID_60_" class="st1" d="M79.9,59.8C76.5,35.9,57.6,17,33.7,13.6c-2.8,1.5-5.4,3.3-7.6,5.5v5.1
			c23.8,0,43.2,19.4,43.2,43.2h5.1C76.6,65.1,78.5,62.6,79.9,59.8"/>
		<path id="XMLID_59_" class="st1" d="M83.9,43.8c0-18.9-15.3-34.2-34.2-34.2c-1.2,0-2.4,0.1-3.5,0.2L45.4,12
			c16.8,5.9,30.1,19.2,36,36l2.3-0.8C83.8,46.1,83.9,45,83.9,43.8"/>
		<path id="XMLID_58_" class="st1" d="M49.7,69.7c0.8-8.5-2.9-16.4-9.3-21.2c-3.3-2.5-7.4-4.2-11.9-4.7c-1.2-0.1-2-1.2-1.9-2.3
			c0.1-1.1,1-1.9,2.1-1.9c0.1,0,0.2,0,0.3,0c4.8,0.5,9.3,2.2,13,4.8c8.1,5.6,13,15.2,11.9,25.7c-0.2,1.7-0.5,3.2-0.9,4.8l6.2,1.7
			c1.8-0.5,3.6-1.2,5.3-2c0.4-2.4,0.7-4.8,0.7-7.3c0-19.5-14.5-35.8-33.2-38.6c-2.3-0.3-4.5-0.3-6.2,0.1c-5.8,1.5-10,6.7-10,12.9
			c0,5.9,3.9,11,9.3,12.7c1,0.3,2.6,0.5,3.3,0.6l0,0c5.9,1,10.4,6.1,10.4,12.3c0,2.5-0.7,4.8-2,6.7l4.3,2.7c2.1,0.5,4.2,0.9,6.4,1.1
			C48.5,75.4,49.4,72.6,49.7,69.7"/>
		<path id="XMLID_57_" class="st1" d="M50.1,84.4c-10.9,0-21.1-4.2-28.7-11.9C13.7,64.8,9.5,54.6,9.5,43.8
			c0-10.9,4.2-21.1,11.9-28.7c0.6-0.6,1.6-0.6,2.2,0c0.6,0.6,0.6,1.6,0,2.2c-7.1,7.1-11,16.5-11,26.6c0,10,3.9,19.5,11,26.6
			s16.5,11,26.6,11c10,0,19.5-3.9,26.6-11c0.6-0.6,1.6-0.6,2.2,0s0.6,1.6,0,2.2C71.1,80.2,60.9,84.4,50.1,84.4"/>
	</g>
	<g>
		<path id="XMLID_13_" class="st2" d="M209.7,77.8V15.7c4.6,0,11.1,0,19.4,0c2.7,0,5.2-0.1,7.3,0c3.4,0.2,5.8,0.7,8.5,3.4
			c2.3,2.2,3,4.5,3.1,7.5c0,2.4,0,5.2,0,8.6c0,1.6,0,3.3,0,4.8c0,1.6,0.1,1.8-0.1,3.1c-0.4,3.4-1.8,5.4-3.2,7
			c-1.3,1.5-2.9,2.5-5.3,2.9c-2.2,0.3-5.2,0.2-8.4,0.2c-3.3,0-9.7,0-12.9,0L218,77.6L209.7,77.8L209.7,77.8z M218,45.9h10.8
			c1.6,0,3.6,0.1,5.6-0.1c1.6-0.2,2.9-0.3,3.8-1.1c2-1.9,1.7-4.7,1.6-8.8c0-1.7,0-3.3-0.1-4.8c-0.1-1.3,0.2-4.8-1.4-6.4
			c-1.6-1.7-3.7-1.5-5.1-1.5c-1.5,0-2.9,0-4.4,0h-10.7L218,45.9z M229,15.7c2.7,0,5.1-0.1,7.3,0c3.4,0.1,5.8,0.7,8.5,3.4"/>
		<path id="XMLID_10_" class="st2" d="M296.5,77.8h-9c0,0-2.6-13.6-3.9-18.2c-1.1-4.3-2.8-6-3.9-6.6c-1.5-0.8-3-0.9-4.5-0.9l-11-0.1
			l0.1,25.7h-8V16.1c4.6-0.1,10.9,0,19.3,0c1.8,0,3.7,0,5.5,0c1.6,0,3.4,0,4.5,0.2c2.5,0.6,3.6,1.4,4.8,2.7
			c2.7,2.9,2.8,7.8,2.8,14.7c0,4.5,0.2,10-1.3,12.5c-1.2,2.1-3,3-6.2,3.7h-0.3c3.9,1.1,5.9,3.6,6.8,8.8L296.5,77.8z M264.2,44.8
			h10.9c2.1,0,5.5,0.2,7.5-0.2c0.7-0.2,1.2-0.5,1.6-1c0.3-0.4,0.5-1,0.6-1.6c0.3-1.8,0.2-4.8,0.2-7.5c0-2,0-4.1-0.1-6.1
			c0-1.6-0.4-3-1.1-3.9c-1-1.1-2.3-1.1-4.2-1.1c-1.6-0.1-3.4,0-4.7,0l-10.7,0.1L264.2,44.8z"/>
		<g>
			<path class="st2" d="M155.2,70.2l-0.1,7.6c-4.9,0-12.8,0-23.9,0c-3.4,0-6.2-1-8.2-3s-3-4.7-3.1-8.1V26.8c0.1-3.4,1.1-6.1,3.1-8.1
				c2-2,4.8-3,8.2-3c11.1,0,19,0.1,23.9,0.1v7.6h-22.5c-1.6,0-2.8,0.4-3.4,1.3c-0.7,0.9-1,2.4-1,4.4v12.4h23.6v7.2h-23.6v15.7
				c0,2,0.3,3.5,1,4.4s1.8,1.3,3.4,1.3L155.2,70.2z"/>
			<path class="st2" d="M337.5,70.1l-0.1,7.6c-4.9,0-12.8,0-23.9,0c-3.4,0-6.2-1-8.2-3s-3-4.7-3.1-8.1V26.7c0.1-3.4,1.1-6.1,3.1-8.1
				s4.8-3,8.2-3c11.1,0,19,0.1,23.9,0.1v7.6h-22.5c-1.6,0-2.8,0.4-3.4,1.3c-0.7,0.9-1,2.4-1,4.4v12.4h23.6v7.2h-23.6v15.7
				c0,2,0.3,3.5,1,4.4s1.8,1.3,3.4,1.3L337.5,70.1z"/>
			<path class="st2" d="M445,77.6h-8.1V15.9h8.1V77.6z"/>
			<path class="st2" d="M488,23.4h-21.1c-1.9,0-3.2,0.4-4,1.3c-0.8,0.9-1.1,2.4-1.1,4.4v13.4h22.8v7.2h-22.9v27.9h-8.1V27.3
				c0-3.6,1-6.5,3-8.5s4.8-3,8.3-3c10.8,0,18.3,0,23.2,0.1C488,15.8,488,23.4,488,23.4z"/>
		</g>
		<path id="XMLID_8_" class="st2" d="M187.5,50.3c-3.2-0.1-11.9,0.2-14.6-0.2c-4.1-0.7-6.4-2.5-8-5.3c-1.6-2.9-1.2-8-1.2-12.6
			c0-4.9-0.1-8.5,1.3-11.2c0.5-1,1.1-1.9,2-2.6c3-2.7,8.3-2.3,15.2-2.3c6.6,0,11.3-0.1,16.2,0v7.5c-4.3,0-11.6-0.1-18-0.1
			c-2.5,0-4.8-0.1-6.5,0.3c-0.3,0.1-0.5,0.2-0.8,0.3c-0.3,0.2-0.7,0.5-0.8,0.9c-0.7,1.1-0.7,2.8-0.7,4.7c0,2-0.2,9.2,0.4,10.2
			c1.1,1.7,2.4,1.8,4.3,1.7c1.1,0,4.6,0,6.9,0c2.7,0,5.9,0,7.2,0.2c2.3,0.3,4.1,0.9,5.5,1.6c1.9,1,2.8,2,3.8,3.7
			c1.1,1.8,1.2,3.7,1.2,6.1c0,1.7,0,4.1,0,6.1c0,2.1,0.1,6.2-0.2,8.4c-0.6,3.9-1.9,6.3-3.9,8c-1.5,1.2-3.3,2-5.9,2.3
			c-1.4,0.2-3,0.2-4.7,0.2c-1.3,0-2.8,0-4.3,0c-5.8,0-12.5,0-18.4,0v-7.8c10.7,0,17.5,0,18.3,0c1.4,0,5.4,0,6.2,0
			c1.9,0,2.7-0.1,3.5-0.9c0.7-0.7,0.8-1.9,0.8-3.7c0-0.4,0-2.4,0-4.3c0-1.6,0-3.3,0-3.6c0-2.3,0.2-4.7-0.9-5.9
			C190.4,50.5,189.7,50.3,187.5,50.3z"/>
		<path id="XMLID_6_" class="st2" d="M369.9,50.3c-3.2-0.1-11.9,0.2-14.6-0.2c-4.1-0.7-6.4-2.5-8-5.3c-1.6-2.9-1.2-8-1.2-12.6
			c0-4.9-0.1-8.5,1.3-11.2c0.5-1,1.1-1.9,2-2.6c3-2.7,8.3-2.3,15.2-2.3c6.6,0,11.3-0.1,16.2,0v7.5c-4.3,0-11.6-0.1-18-0.1
			c-2.5,0-4.8-0.1-6.5,0.3c-0.3,0.1-0.5,0.2-0.8,0.3c-0.3,0.2-0.7,0.5-0.8,0.9c-0.7,1.1-0.7,2.8-0.7,4.7c0,2-0.2,9.2,0.4,10.2
			c1.1,1.7,2.4,1.8,4.3,1.7c1.1,0,4.6,0,6.9,0c2.7,0,5.9,0,7.2,0.2c2.3,0.3,4.1,0.9,5.5,1.6c1.9,1,2.7,2,3.7,3.7
			c1.1,1.9,1.3,3.7,1.3,6.1c0,1.7,0,4.1,0,6.1c0,2.1,0.1,6.2-0.2,8.4c-0.6,3.9-1.9,6.3-3.9,8c-1.5,1.2-3.3,2-5.9,2.3
			c-1.4,0.2-3,0.2-4.7,0.2c-1.3,0-2.8,0-4.3,0c-5.8,0-12.5,0-18.4,0v-7.8c10.7,0,17.5,0,18.3,0c1.4,0,5.4,0,6.2,0
			c1.9,0,2.7-0.1,3.5-0.9c0.7-0.7,0.8-1.9,0.8-3.7c0-0.4,0-2.4,0-4.3c0-1.6,0-3.3,0-3.6c0-2.3,0.2-4.7-0.9-5.9
			C372.8,50.5,372,50.3,369.9,50.3z"/>
		<path id="XMLID_1_" class="st2" d="M414.8,50.3c-3.2-0.1-11.9,0.2-14.6-0.2c-4.1-0.7-6.4-2.5-8-5.3c-1.6-2.9-1.2-8-1.2-12.6
			c0-4.9-0.1-8.5,1.3-11.2c0.5-1,1.1-1.9,2-2.6c3-2.7,8.3-2.3,15.2-2.3c6.6,0,11.3-0.1,16.2,0v7.5c-4.3,0-11.6-0.1-18-0.1
			c-2.5,0-4.8-0.1-6.5,0.3c-0.3,0.1-0.5,0.2-0.8,0.3c-0.3,0.2-0.7,0.5-0.8,0.9c-0.7,1.1-0.7,2.8-0.7,4.7c0,2-0.2,9.2,0.4,10.2
			c1.1,1.7,2.4,1.8,4.3,1.7c1.1,0,4.6,0,6.9,0c2.7,0,5.9,0,7.2,0.2c2.3,0.3,4.1,0.9,5.5,1.6c1.9,1,2.7,2,3.7,3.7
			c1.1,1.9,1.3,3.7,1.3,6.1c0,1.7,0,4.1,0,6.1c0,2.1,0.1,6.2-0.2,8.4c-0.6,3.9-1.9,6.3-3.9,8c-1.5,1.2-3.3,2-5.9,2.3
			c-1.4,0.2-3,0.2-4.7,0.2c-1.3,0-2.8,0-4.3,0c-5.8,0-12.5,0-18.4,0v-7.8c10.7,0,17.5,0,18.3,0c1.4,0,5.4,0,6.2,0
			c1.9,0,2.7-0.1,3.5-0.9c0.7-0.7,0.8-1.9,0.8-3.7c0-0.4,0-2.4,0-4.3c0-1.6,0-3.3,0-3.6c0-2.3,0.2-4.7-0.9-5.9
			C417.7,50.5,417,50.3,414.8,50.3z"/>
	</g>
</g>
<g id="图层_2">
</g>
</svg>
